<svg xmlns="http://www.w3.org/2000/svg" width="1em" height="1em" viewBox="0 0 256 256">
  <rect width="256" height="256" fill="#f6ede3" rx="50" ry="50" />
  <path fill="#333e48" d="M128 32c-10 0-18 8-18 18v30c0 10-6 18-14 22-8 4-18 4-28 0-10-4-14-14-12-24 2-10 10-16 20-16 6 0 12 2 16 6 2 2 6 2 8 0s2-6 0-8c-6-6-14-10-24-10-16 0-30 10-34 26-4 16 4 32 20 40 8 4 16 6 24 6 8 0 16-2 24-6 14-6 22-20 22-36V50c0-4 4-8 8-8s8 4 8 8v30c0 16 8 30 22 36 8 4 16 6 24 6s16-2 24-6c16-8 24-24 20-40-4-16-18-26-34-26-10 0-18 4-24 10-2 2-2 6 0 8s6 2 8 0c4-4 10-6 16-6 10 0 18 6 20 16 2 10-2 20-12 24-10 4-20 4-28 0-8-4-14-12-14-22V50c0-10-8-18-18-18zm0 100c-6 0-10 4-10 10v82c0 6 4 10 10 10s10-4 10-10v-82c0-6-4-10-10-10z"/>
</svg>